<svg xmlns="http://www.w3.org/2000/svg" xmlns:xlink="http://www.w3.org/1999/xlink" width="100%" height="100%" version="1.1" viewBox="0 0 1200 500" xml:space="preserve" style="fill-rule:evenodd;clip-rule:evenodd;stroke-linecap:round;stroke-linejoin:round;stroke-miterlimit:1.5"><rect width="1496.74" height="1069.87" x="-14.589" y="-59.099" style="fill:#ffefef"/><g id="key"><g><text x="506.619" y="236.312" style="font-family:'AvenirNext-Regular','Avenir Next',sans-serif;font-size:96px;fill:#334650" transform="matrix(1,0,0,1,-23.0732,39.4552)">P<tspan x="555.387 614.043" y="236.312 236.312">os</tspan>tie</text></g><g><text x="541.262" y="335.386" style="font-family:'ArialMT','Arial',sans-serif;font-size:20px;fill:#334660" transform="matrix(0.982793,0,0,0.9941,-44.4366,-35.3299)">Catch Emails, Code Smarter</text></g></g><g id="Logo"><g><path d="M86.532,5.552C85.177,6.014 83.302,6.821 82.351,7.311C81.399,7.802 78.486,9.301 75.862,10.657C73.238,11.983 70.902,13.194 70.671,13.339C70.441,13.483 69.662,13.887 68.941,14.204C68.22,14.521 67.442,14.925 67.211,15.069C66.98,15.213 66.057,15.646 65.192,16.049C64.327,16.453 63.145,17.03 62.597,17.347C62.049,17.664 61.011,18.183 60.29,18.529C59.569,18.847 58.79,19.25 58.559,19.395C58.329,19.539 56.771,20.317 55.099,21.125C53.426,21.961 51.494,22.942 50.802,23.316C50.11,23.691 49.418,24.009 49.302,24.009C49.158,24.009 48.409,24.383 47.601,24.874C46.794,25.335 46.015,25.739 45.871,25.739C45.092,25.739 40.622,28.767 39.238,30.266C36.498,33.15 35.691,34.736 35.172,38.11C34.538,42.551 35.835,46.416 39.065,49.732C40.651,51.376 43.218,52.991 45.092,53.539C45.9,53.798 46.448,55.5 46.448,57.864C46.448,61.123 46.361,61.181 41.401,61.296C37.133,61.382 36.325,61.584 34.105,62.997C33.413,63.43 32.75,63.805 32.634,63.805C32.49,63.805 31.856,64.382 31.221,65.074C29.981,66.4 28.972,68.188 28.453,69.861C28.251,70.524 28.107,80.415 27.991,98.727C27.847,125.633 27.062,185.114 27.559,191.239C27.581,191.512 27.789,196.978 27.847,203.467C27.934,210.676 28.107,215.434 28.28,215.78C28.424,216.069 28.568,216.645 28.568,217.078C28.568,218.895 32.029,222.673 35.057,224.143C36.7,224.951 37.335,225.095 39.901,225.21C41.516,225.297 43.564,225.239 44.458,225.066C46.159,224.749 48.553,223.451 50.052,222.067C51.292,220.913 52.965,220.942 54.061,222.096C54.522,222.557 55.849,223.451 57.06,224.057L59.223,225.153L63.145,225.153C66.634,225.153 67.211,225.066 68.509,224.46C71.681,222.99 74.968,219.875 75.631,217.712C76.727,214.079 76.727,214.05 76.727,199.025C76.727,189.422 76.455,168.863 76.628,168.488C77.031,167.767 81.063,168.363 97.291,167.671C97.564,167.659 117.454,167.143 117.508,167.111C117.623,167.024 121.522,166.566 122.739,166.636C125.43,166.791 132.783,164.333 137.218,162.38C139.875,161.21 141.717,160.052 141.717,159.677C141.717,159.446 149.188,154.427 149.583,154.018C151.57,151.963 151.497,152.5 155.966,146.024L160.415,138.639L161.424,136.188C161.972,134.832 162.549,133.333 162.664,132.871C162.808,132.381 163.039,131.603 163.212,131.141C163.529,130.132 164.135,127.796 164.885,124.508C165.606,121.336 165.577,108.85 164.856,106.629C164.596,105.822 164.394,104.87 164.394,104.495C164.394,103.803 163.789,101.525 163.097,99.564C162.924,99.016 162.52,97.833 162.232,96.968C161.482,94.632 159.809,91.028 158.367,88.605C158.088,88.13 157.819,87.649 157.56,87.163C157.473,86.933 157.012,86.27 156.55,85.693C156.118,85.116 155.743,84.51 155.743,84.395C155.743,84.251 155.368,83.732 154.936,83.213C154.503,82.722 153.667,81.684 153.061,80.906C151.677,79.147 146.457,73.985 144.929,72.86C144.396,72.474 143.877,72.071 143.372,71.649C143.141,71.418 142.42,70.928 141.785,70.524C141.008,70.035 140.257,69.506 139.536,68.938L138.44,68.073L138.44,61.267C138.44,57.489 138.556,54.288 138.671,54.144C138.786,53.971 139.738,53.394 140.834,52.875C143.458,51.578 145.102,50.28 146.573,48.29C149.37,44.57 150.293,40.59 149.226,36.957C148.159,33.323 146.457,30.699 143.977,28.853C141.843,27.238 141.987,27.354 136.277,24.412C133.596,23.028 130.221,21.298 128.78,20.519C127.781,19.972 126.771,19.443 125.752,18.933C125.521,18.847 124.742,18.472 124.021,18.097C122.032,17.088 106.373,9.157 102.97,7.456C97.635,4.745 98.067,4.889 93.309,4.774C89.099,4.658 88.926,4.687 86.532,5.552ZM95.962,14.117C96.971,14.55 99.971,16.021 112.775,22.423C117.708,24.899 122.649,27.359 127.597,29.805C137.575,34.765 140.171,36.38 140.171,37.562C140.171,38.283 136.652,41.052 134.403,42.09C133.163,42.667 131.836,43.042 130.51,43.157C128.434,43.359 123.502,43.042 119.696,42.465C114.13,41.657 111.419,41.311 110.612,41.311C110.15,41.311 109.285,41.167 108.708,41.023L107.641,40.735L107.497,37.332C107.411,35.4 107.151,33.467 106.921,32.804C104.902,27.498 101.182,24.095 95.818,22.74C88.291,20.836 80.534,25.076 77.535,32.718C77.073,33.871 76.929,35.025 76.871,37.332C76.814,39.004 76.698,40.533 76.612,40.706C76.497,40.85 75.804,41.081 75.055,41.167C74.305,41.254 72.344,41.513 70.671,41.744C61.818,42.926 59.511,43.157 55.82,43.157L51.783,43.128C51.783,43.128 46.448,41.321 45.871,40.658C44.92,39.648 43.621,38.774 44.458,37.303C45.525,35.428 45.64,35.371 61.876,27.469C67.166,24.889 72.453,22.304 77.737,19.712C83.447,16.886 88.58,14.377 89.128,14.117C90.541,13.483 94.52,13.483 95.962,14.117ZM95.731,29.834C97.346,30.612 98.904,32.141 99.769,33.813C100.345,34.88 100.461,35.573 100.461,37.764C100.49,40.388 100.461,40.475 99.394,42.003C98.327,43.561 97.75,44.08 95.76,45.176C94.982,45.608 94.203,45.752 92.3,45.752C90.223,45.752 89.618,45.637 88.407,45.003C86.849,44.195 85.263,42.638 84.369,41.023C83.562,39.523 83.62,35.573 84.485,33.871C85.321,32.256 87.051,30.526 88.608,29.834C90.425,28.969 93.972,28.998 95.731,29.834ZM85.782,51.693C89.791,53.712 95.501,53.539 99.625,51.203C100.317,50.828 100.98,50.77 103.777,50.943C105.623,51.058 107.699,51.26 108.42,51.405C109.17,51.549 110.987,51.808 112.486,51.981C115.399,52.299 118.773,52.818 122.262,53.452C124.367,53.827 124.396,53.856 126.213,55.846C127.222,56.97 128.059,57.98 128.059,58.124C128.059,58.268 127.453,58.326 126.703,58.239C125.925,58.153 123.906,57.922 122.147,57.749C120.417,57.576 118.34,57.287 117.533,57.143C115.976,56.826 110.583,56.422 102.97,56.019C97.029,55.701 86.446,55.701 81.486,56.019C71.479,56.682 68.624,56.884 66.634,57.143C64.327,57.46 59.799,58.008 57.781,58.239C57.089,58.326 56.541,58.297 56.541,58.21C56.541,57.835 59.655,54.346 60.29,54C60.809,53.712 64.096,53.019 66.346,52.702C67.263,52.582 68.176,52.438 69.085,52.27C70.527,52.01 76.843,51.203 78.746,51.001C79.803,50.95 80.86,50.912 81.918,50.885C83.793,50.828 84.312,50.943 85.782,51.693ZM103.691,62.622C105.911,62.795 109.487,63.084 111.621,63.228C118.023,63.689 123.358,64.324 124.021,64.67L124.627,64.987L123.993,66.054C122.262,68.967 120.561,70.582 117.706,72.052C114.591,73.667 110.295,74.331 100.23,74.734C91.089,75.08 77.857,74.567 77.246,74.533C76.263,74.479 74.859,74.264 74.429,74.264C72.209,74.264 69.46,73.639 68.364,73.004C68.134,72.86 67.355,72.456 66.634,72.11C65.913,71.764 64.356,70.495 63.174,69.284C60.866,66.977 59.684,65.16 60.203,64.641C60.347,64.497 61.789,64.237 63.347,64.093C64.904,63.949 67.24,63.689 68.509,63.516C69.777,63.343 72.575,63.084 74.709,62.94C76.843,62.767 79.323,62.536 80.188,62.421C82.437,62.075 98.904,62.219 103.691,62.622ZM53.599,70.611C53.974,70.87 54.378,71.36 54.551,71.706C56.31,75.744 62.308,81.223 67.211,83.213C73.209,85.664 78.89,86.385 92.3,86.414C102.479,86.414 107.324,86.068 111.333,85.087C112.1,84.905 112.869,84.732 113.64,84.568C115.976,84.02 119.609,82.405 122.003,80.848C123.964,79.55 127.136,76.465 128.174,74.821C128.607,74.129 129.126,73.523 129.299,73.437C129.702,73.292 131.692,74.129 133.105,75.052C133.596,75.369 134.172,75.715 134.403,75.83C135.556,76.349 140.863,80.617 142.939,82.665C145.736,85.462 149.168,89.932 150.754,92.902C153.724,98.381 154.964,101.928 156.147,108.215C156.781,111.531 156.781,120.039 156.147,123.124C155.57,126.008 154.936,128.546 154.416,129.901C153.292,132.958 153.032,133.592 152.196,135.323C151.706,136.361 150.956,137.745 150.495,138.437C150.062,139.129 149.687,139.735 149.687,139.821C149.687,140.196 145.909,144.926 144.093,146.8C142.132,148.848 137.056,152.914 136.479,152.914C136.335,152.914 136.076,153.087 135.903,153.289C135.556,153.664 130.942,156.028 129.068,156.749C128.434,156.98 127.194,157.384 126.328,157.614C125.463,157.874 124.021,158.278 123.127,158.508C122.233,158.768 121.08,158.97 120.532,158.97C119.984,158.97 119.032,159.114 118.369,159.258C117.706,159.402 107.122,159.575 93.972,159.633C71.681,159.748 70.729,159.777 70.008,160.296C68.307,161.565 68.364,160.44 68.307,185.933L68.22,209.292L67.586,210.503C67.211,211.166 66.49,212.031 65.971,212.435L64.99,213.185L52.388,213.185C38.085,213.185 38.604,213.271 37.45,210.878C36.7,209.378 36.643,208.513 36.672,198.478C36.672,194.21 36.787,191.297 36.96,191.095C37.133,190.864 36.901,150.202 36.787,150.059C36.7,149.886 36.643,132.698 36.643,111.82C36.643,70.985 36.585,72.773 38.113,71.418C39.325,70.351 40.334,70.207 46.736,70.178C51.984,70.149 53.051,70.207 53.599,70.611Z" style="fill:#cb4e47;fill-rule:nonzero" transform="matrix(1,0,0,1,249.053,128.734) matrix(1.06108,0,0,1.06108,-2.45159,-3.28391)"/></g><g><path d="M66.634,108.994C64.01,109.945 62.164,111.387 60.78,113.521C58.79,116.607 58.646,120.298 60.405,123.672C61.126,125.056 63.548,127.162 65.365,127.969C67.384,128.863 70.643,128.95 72.748,128.2C74.564,127.565 76.612,125.979 77.737,124.364C78.688,123.009 79.611,120.183 79.611,118.683C79.611,117.76 78.832,115.309 78.025,113.781C77.275,112.281 74.478,109.974 72.69,109.34C71.19,108.821 67.701,108.619 66.634,108.994ZM113.957,109.426C111.938,110.234 109.487,112.512 108.593,114.386C107.209,117.299 107.094,119.145 108.045,122C108.997,124.855 110.756,126.671 114.043,128.171C115.803,128.978 119.465,128.892 121.541,127.969C127.367,125.374 129.501,118.741 126.127,113.521C124.973,111.733 123.819,110.695 121.916,109.715C119.84,108.648 116.235,108.503 113.957,109.426ZM83.447,127.681C82.408,128.113 81.341,129.642 81.341,130.622C81.341,131.804 82.899,134.573 84.369,136.072C89.272,141.004 97.087,141.033 102.249,136.159C103.835,134.659 105.277,132.122 105.277,130.795C105.277,128.776 103.143,127.017 101.412,127.623C100.144,128.027 99.913,128.286 99.192,129.786C97.692,132.929 94.693,134.227 91.319,133.246C89.993,132.843 87.397,130.42 87.397,129.584C87.397,129.036 86.503,128.113 85.465,127.565C84.687,127.162 84.6,127.162 83.447,127.681Z" style="fill:#cb4e47;fill-rule:nonzero" transform="matrix(1,0,0,1,249.053,128.734) matrix(1.06108,0,0,1.06108,-2.45159,-3.28391)"/></g><g transform="matrix(1,0,0,1,249.053,128.734) matrix(1.24732,0,0,1.24732,-336.859,-171.829)"><circle cx="346.87" cy="166.086" r="8.166" style="fill:gold"/></g><g><path d="M301.992,298.907C301.992,294.339 297.69,290.63 292.39,290.63L260.076,290.63C254.776,290.63 250.474,294.339 250.474,298.907L250.474,315.46C250.474,320.028 254.776,323.736 260.076,323.736L292.39,323.736C297.69,323.736 301.992,320.028 301.992,315.46L301.992,298.907Z" style="fill:#cb4e47" transform="matrix(1,0,0,1,249.053,128.734) matrix(0.925565,-0.378589,0.439218,1.07379,-278.025,-41.0655)"/><path d="M301.992,298.907C301.992,294.339 297.69,290.63 292.39,290.63L260.076,290.63C254.776,290.63 250.474,294.339 250.474,298.907L250.474,315.46C250.474,320.028 254.776,323.736 260.076,323.736L292.39,323.736C297.69,323.736 301.992,320.028 301.992,315.46L301.992,298.907ZM299.492,298.907L299.492,315.46C299.492,318.838 296.31,321.581 292.39,321.581C292.39,321.581 260.076,321.581 260.076,321.581C256.156,321.581 252.974,318.838 252.974,315.46C252.974,315.46 252.974,298.907 252.974,298.907C252.974,295.528 256.156,292.785 260.076,292.785L292.39,292.785C296.31,292.785 299.492,295.528 299.492,298.907Z" style="fill:#cb4e47" transform="matrix(1,0,0,1,249.053,128.734) matrix(0.925565,-0.378589,0.439218,1.07379,-278.025,-41.0655)"/></g><g><path d="M688.933,106.133L111.067,106.133C49.73,106.133 0,155.862 0,217.2L0,582.8C0,644.138 49.73,693.867 111.067,693.867L688.933,693.867C750.269,693.867 800,644.138 800,582.8L800,217.2C800,155.862 750.269,106.133 688.933,106.133ZM278.384,502.688L122.853,635.375C111.883,644.738 95.391,643.436 86.03,632.455C76.667,621.484 77.969,604.992 88.952,595.631L244.483,462.944C255.452,453.581 271.942,454.883 281.305,465.866C290.667,476.834 289.366,493.327 278.384,502.688ZM400,452.244C379.197,452.192 359.031,445.28 343.266,431.645L343.278,431.658L343.228,431.62C343.241,431.633 343.255,431.633 343.266,431.645L104.628,224.522C93.722,215.056 92.561,198.566 102.012,187.673C111.477,176.767 127.969,175.606 138.859,185.058L377.564,392.233C382.666,396.773 391.072,400.052 400,400C408.916,400.027 417.18,396.837 422.563,392.144L422.678,392.042L661.139,185.059C672.031,175.608 688.523,176.769 697.987,187.675C707.438,198.566 706.278,215.058 695.372,224.523L456.669,431.709C440.955,445.202 420.816,452.217 400,452.244ZM713.981,632.455C704.619,643.436 688.127,644.737 677.159,635.375L521.628,502.688C510.647,493.325 509.345,476.834 518.708,465.866C528.069,454.883 544.561,453.583 555.53,462.944L711.061,595.631C722.042,604.992 723.344,621.484 713.981,632.455Z" style="fill:#cb4e47;fill-rule:nonzero" transform="matrix(1,0,0,1,249.053,128.734) matrix(0.0471852,-0.0193521,0.0193521,0.0471852,85.7645,172.954)"/><path d="M688.933,106.133L111.067,106.133C49.73,106.133 -0,155.862 0,217.2L-0,582.8C-0,644.137 49.73,693.867 111.067,693.867L688.933,693.867C750.269,693.867 800,644.137 800,582.8L800,217.2C800,155.862 750.269,106.133 688.933,106.133ZM278.384,502.688L122.853,635.375C111.883,644.738 95.391,643.436 86.03,632.455C76.667,621.484 77.969,604.992 88.952,595.631L244.483,462.944C255.452,453.581 271.942,454.883 281.305,465.866C290.667,476.834 289.366,493.327 278.384,502.688ZM463.513,485.859C444.118,495.964 422.36,501.235 400.063,501.264C400.001,501.264 399.94,501.264 399.878,501.264C377.629,501.209 355.897,495.997 336.497,485.885C335.681,506.067 326.769,525.856 310.185,539.993L187.279,644.847L612.734,644.847L489.824,539.99C473.232,525.844 464.32,506.041 463.513,485.859ZM49.02,223.699L49.02,566.387C51.48,563.546 54.187,560.852 57.136,558.338C57.136,558.338 212.667,425.651 212.658,425.659C221.854,417.81 232.399,412.565 243.397,409.874L72.497,261.543C60.566,251.188 52.692,237.911 49.02,223.699ZM713.981,632.455C704.619,643.436 688.127,644.737 677.159,635.375L521.628,502.687C510.647,493.325 509.345,476.834 518.708,465.866C528.069,454.883 544.561,453.583 555.53,462.944L711.061,595.631C722.042,604.992 723.344,621.484 713.981,632.455ZM312.168,469.544L312.656,469.924L311.542,469.005L312.168,469.544ZM340.296,480.572L338.639,480.442L340.296,480.572ZM342.538,480.655L340.818,480.6L342.538,480.655ZM346.914,480.522L345.289,480.619L346.914,480.522ZM349.033,480.317L347.55,480.473L349.033,480.317ZM351.092,480.027L349.808,480.222L351.092,480.027ZM353.072,479.665L352.048,479.869L353.072,479.665ZM368.294,473.794L367.732,474.118L368.294,473.794ZM370.255,472.564L369.459,473.075L370.255,472.564ZM372.204,471.208L371.195,471.926L372.204,471.208ZM379.652,464.495L381.192,462.706C380.18,463.942 379.114,465.119 378,466.236L379.652,464.495ZM325.934,444.287L326.162,444.677L326.237,443.982L325.934,444.287ZM388.106,451.449C392.027,451.97 396.002,452.234 400,452.244C420.816,452.217 440.955,445.202 456.669,431.709L695.372,224.523C706.278,215.058 707.437,198.566 697.987,187.675C688.523,176.769 672.031,175.608 661.139,185.059L422.562,392.144C417.518,396.543 409.942,399.62 401.673,399.967C399.696,376.235 396.2,350.78 390.55,355.049L397.925,399.945L397.747,399.934L390.346,355.2L390.547,355.031L390.324,355.215C377.471,366.505 374.231,378.966 375.793,390.695L138.859,185.058C127.969,175.606 111.477,176.767 102.012,187.673C92.561,198.566 93.722,215.056 104.628,224.522L343.266,431.645L346.272,434.123C358.422,443.658 372.884,449.455 388.106,451.449ZM387.215,453.359L387.114,453.557L387.215,453.359ZM750.98,223.696C747.312,237.904 739.438,251.186 727.504,261.544L556.61,409.873C567.608,412.562 578.151,417.805 587.345,425.651C587.345,425.651 742.876,558.338 742.862,558.326C745.813,560.841 748.52,563.536 750.98,566.377L750.98,223.696ZM179.19,155.153L400.011,346.807L620.811,155.153L179.19,155.153Z" style="fill:#ffefef" transform="matrix(1,0,0,1,249.053,128.734) matrix(0.0471852,-0.0193521,0.0193521,0.0471852,85.7645,172.954)"/></g><g><path d="M303.323,289.529C295.913,304.366 313.559,326.203 324.776,322.164" style="fill:none;stroke:#cb4e47;stroke-width:12px" transform="matrix(1,0,0,1,249.053,128.734) matrix(0.869168,-0.494517,0.494517,0.869168,-352.074,74.2448)"/></g><g transform="matrix(1,0,0,1,249.053,128.734) matrix(0.529313,0,0,0.529313,73.2565,-27.4641)"><ellipse cx="668.318" cy="212.047" rx="5.097" ry="5.146" style="fill:#cb4e47;stroke:#cb4e47;stroke-width:7.56px"/></g></g></svg>